<?xml version="1.0" standalone="no"?>
<!DOCTYPE svg PUBLIC "-//W3C//DTD SVG 20010904//EN"
 "http://www.w3.org/TR/2001/REC-SVG-20010904/DTD/svg10.dtd">
<svg version="1.0" xmlns="http://www.w3.org/2000/svg"
 width="512.000000pt" height="512.000000pt" viewBox="0 0 512.000000 512.000000"
 preserveAspectRatio="xMidYMid meet">
<metadata>
Created by potrace 1.14, written by Peter Selinger 2001-2017
</metadata>
<g transform="translate(0.000000,512.000000) scale(0.100000,-0.100000)"
fill="#000000" stroke="none">
<path d="M475 5109 c-39 -9 -110 -37 -130 -51 -96 -70 -162 -163 -188 -265
-14 -57 -16 -736 -2 -783 4 -14 8 -33 8 -42 1 -10 6 -18 11 -18 5 0 7 -3 3 -6
-3 -4 3 -24 14 -45 11 -22 17 -39 14 -39 -3 0 0 -7 7 -15 29 -35 34 -41 46
-65 7 -14 28 -36 47 -50 18 -14 31 -28 29 -32 -2 -3 9 -12 25 -19 16 -7 27
-17 25 -21 -3 -4 2 -8 10 -8 8 0 18 -6 23 -12 4 -7 8 -722 9 -1589 1 -867 4
-1582 8 -1588 4 -6 10 -24 12 -39 12 -67 83 -187 149 -255 37 -37 73 -67 81
-67 8 0 14 -4 14 -9 0 -5 10 -13 22 -17 13 -4 25 -10 28 -13 3 -4 37 -18 75
-31 l70 -25 1250 0 1250 0 63 23 c34 13 73 29 85 35 26 14 80 49 87 57 3 3 24
22 48 42 23 21 40 38 37 38 -3 0 5 11 18 25 13 14 35 49 50 78 56 109 59 128
64 362 3 121 7 222 9 224 2 2 149 5 326 7 178 1 330 4 338 6 8 2 31 8 50 12
19 5 41 13 49 20 8 6 16 10 18 8 6 -5 92 40 113 60 10 10 22 18 25 18 13 0
115 115 115 130 0 6 4 10 8 10 5 0 14 16 22 35 8 19 18 35 24 35 5 0 7 3 4 6
-4 3 0 21 8 40 8 19 11 34 8 34 -4 0 -2 6 3 12 5 7 11 29 13 48 10 93 1 2505
-9 2505 -2 0 -4 11 -7 24 -2 14 -9 30 -15 38 -6 7 -8 13 -4 13 3 0 -3 16 -15
35 -12 19 -19 35 -15 35 3 0 -6 12 -20 27 -14 15 -25 31 -25 34 0 8 -97 109
-105 109 -4 0 -25 13 -48 28 -47 32 -134 68 -187 78 -19 4 -178 8 -352 8 -174
1 -319 4 -322 7 -3 2 -6 103 -7 224 -1 207 -11 287 -37 330 -4 6 -7 17 -9 25
-1 8 -7 16 -12 18 -6 2 -11 9 -11 16 0 19 -109 123 -143 137 -18 7 -34 16 -37
20 -3 3 -30 14 -60 22 -50 15 -203 16 -1535 16 -838 -1 -1497 -5 -1520 -10z
m3776 -1401 c65 -30 102 -65 134 -130 l23 -47 0 -921 c0 -925 -2 -974 -35
-1008 -7 -7 -13 -17 -13 -22 0 -29 -147 -119 -170 -105 -5 3 -11 1 -14 -4 -3
-5 -31 -8 -62 -7 -30 1 -58 -2 -60 -6 -3 -5 -10 -5 -16 -2 -6 4 -53 7 -105 6
l-93 -1 0 1133 c0 623 3 1135 6 1139 3 3 83 4 178 3 158 -3 175 -5 227 -28z"/>
</g>
</svg>
